<svg version="1.1" id="Layer_1" xmlns="http://www.w3.org/2000/svg" xmlns:xlink="http://www.w3.org/1999/xlink" x="0px" y="0px"
	 viewBox="0 0 200 200" style="enable-background:new 0 0 200 200;" xml:space="preserve">
<style type="text/css">
	.st0{fill:#CE5FF8;}
	.st1{fill:#CE5FF8;stroke:#CE5FF8;stroke-miterlimit:10;}

	#Bubble1{
		animation-duration: 2s;
    	animation-name: bubble1;
    	animation-iteration-count: infinite;
		animation-direction: alternate;
		animation-delay: 0s;
	}

	#Bubble2{
		animation-duration: 2s;
    	animation-name: bubble1;
    	animation-iteration-count: infinite;
		animation-direction: alternate;
		animation-delay: 1s;
	}

	#Bubble3{
		animation-duration: 3s;
    	animation-name: bubble1;
    	animation-iteration-count: infinite;
		animation-direction: alternate;
		animation-delay: 2s;
	}

	@keyframes bubble1{
    from{
        opacity: 100%;
    }
    to{
        opacity: 0%;
    }
}

</style>
<path class="st0" d="M19.22,167.27c0-4.57,0-8.78,0-13.42c4.67,0,9.15,0.01,13.63,0c10.5-0.02,21,0.06,31.5-0.11
	c5.78-0.1,8.55-3.7,7.6-9.04c-0.5-2.83-1.9-4-4.82-3.98c-10.5,0.08-21-0.13-31.5,0c-7.79,0.09-13.74-3.13-17.01-10.02
	c-3.43-7.24-3.48-14.8,1.31-21.7c2.8-4.03,6.99-6.16,11.83-6.2c16.86-0.14,33.72-0.05,51-0.05c0,4.99,0,9.76,0,14.78
	c-0.92,0.09-1.88,0.27-2.84,0.27c-14.62,0.01-29.25-0.06-43.87,0.03c-2.48,0.01-5.92-1.06-6.01,3.47c-0.07,3.93,1.62,5.62,6.07,5.63
	c9.5,0.03,19.02,0.42,28.49-0.11c20.29-1.14,24.01,16.89,18.84,29.33c-3.03,7.29-9.18,10.91-16.34,11.21
	c-15.22,0.63-30.49,0.2-45.74,0.19C20.76,167.55,20.16,167.4,19.22,167.27z"/>
<path class="st0" d="M116.81,167.29c-0.08-1.38-0.2-2.47-0.2-3.56c-0.01-19.1,0.06-38.2-0.06-57.3c-0.02-2.99,0.83-3.85,3.81-3.8
	c10.86,0.17,21.73,0.3,32.58,0.01c12.22-0.33,20.37,5.77,25.74,15.95c6.04,11.45,5.88,23.29,0.09,34.78
	c-4.65,9.23-12.66,13.9-22.93,14.13c-11.36,0.26-22.72,0.09-34.08,0.08C120.17,167.57,118.57,167.4,116.81,167.29z M130.68,135.77
	c0,5.12,0.04,10.24-0.02,15.36c-0.02,1.77,0.36,2.79,2.47,2.75c7.61-0.14,15.26,0.23,22.83-0.39c3.03-0.25,6.41-1.99,8.73-4.06
	c4.82-4.31,4.96-10.46,4.19-16.33c-0.99-7.52-7.19-16.25-17.58-15.36c-5.83,0.5-11.73,0.15-17.6,0.04
	c-2.23-0.04-3.12,0.68-3.06,3.01C130.77,125.77,130.67,130.77,130.68,135.77z"/>
<path class="st0" d="M93.45,121.42c4.2,0,8.15,0,12.32,0c0,16.37,0,32.54,0,48.99c-4.06,0-8,0-12.32,0
	C93.45,154.23,93.45,137.97,93.45,121.42z"/>
<path id="Bubble3" class="st1" d="M120.6,26.34c6.45,0.02,12.2,5.56,12.17,11.73c-0.03,6.43-5.48,11.76-12.07,11.81
	c-6.32,0.05-11.59-5.25-11.68-11.72C108.92,31.92,114.42,26.32,120.6,26.34z M120.95,45.87c4.37-0.04,7.73-3.47,7.68-7.83
	c-0.04-3.87-3.81-7.66-7.65-7.69c-4.23-0.04-7.78,3.52-7.78,7.81C113.2,42.65,116.48,45.91,120.95,45.87z"/>
<path id="Bubble1" class="st1" d="M102.87,71.43c7,0.19,12.05,5.44,11.73,12.22c-0.27,5.91-6.05,11.74-11.87,11.26
	c-7.05-0.57-11.45-4.27-11.58-12.16C91.04,76.07,96.24,71.26,102.87,71.43z M103.04,75.37c-4.33-0.22-8.11,3.15-8.28,7.41
	c-0.15,3.72,3.6,7.7,7.52,7.99c4.01,0.29,8.24-3.44,8.39-7.42C110.83,78.9,107.69,75.61,103.04,75.37z"/>
<path id="Bubble2" class="st1" d="M78.91,44.69c6.97,0.07,11.48,4.59,11.41,11.45c-0.07,6.85-5.11,11.89-11.8,11.81
	c-6.37-0.08-11.32-5.57-11.61-12.18C66.67,50.59,72.67,43.59,78.91,44.69z M78.76,48.35c-4.33,0.01-7.88,3.51-7.86,7.76
	c0.02,3.91,4.05,8.1,7.82,8.1c3.95,0.01,7.85-4.05,7.74-8.05C86.34,51.61,83.12,48.34,78.76,48.35z"/>
</svg>
